<mxfile host="app.diagrams.net" agent="Mozilla/5.0 (Macintosh; Intel Mac OS X 10_15_7) AppleWebKit/537.36 (KHTML, like Gecko) Chrome/126.0.0.0 Safari/537.36" version="24.7.6">
  <diagram name="Page-1" id="pVAOQa1XuBxonMhf1J52">
    <mxGraphModel dx="1522" dy="804" grid="1" gridSize="10" guides="1" tooltips="1" connect="1" arrows="1" fold="1" page="1" pageScale="1" pageWidth="827" pageHeight="1169" math="0" shadow="0">
      <root>
        <mxCell id="0" />
        <mxCell id="1" parent="0" />
        <mxCell id="WiiukHZ8mbQ8ulk3M_za-4" value="" style="edgeStyle=orthogonalEdgeStyle;rounded=0;orthogonalLoop=1;jettySize=auto;html=1;" edge="1" parent="1" source="WiiukHZ8mbQ8ulk3M_za-2" target="WiiukHZ8mbQ8ulk3M_za-3">
          <mxGeometry relative="1" as="geometry" />
        </mxCell>
        <mxCell id="WiiukHZ8mbQ8ulk3M_za-2" value="cmd" style="rounded=0;whiteSpace=wrap;html=1;" vertex="1" parent="1">
          <mxGeometry x="90" y="200" width="120" height="60" as="geometry" />
        </mxCell>
        <mxCell id="WiiukHZ8mbQ8ulk3M_za-6" value="" style="edgeStyle=orthogonalEdgeStyle;rounded=0;orthogonalLoop=1;jettySize=auto;html=1;" edge="1" parent="1" source="WiiukHZ8mbQ8ulk3M_za-3" target="WiiukHZ8mbQ8ulk3M_za-5">
          <mxGeometry relative="1" as="geometry" />
        </mxCell>
        <mxCell id="WiiukHZ8mbQ8ulk3M_za-3" value="controller" style="rounded=0;whiteSpace=wrap;html=1;" vertex="1" parent="1">
          <mxGeometry x="280" y="200" width="120" height="60" as="geometry" />
        </mxCell>
        <mxCell id="WiiukHZ8mbQ8ulk3M_za-5" value="main" style="rounded=0;whiteSpace=wrap;html=1;" vertex="1" parent="1">
          <mxGeometry x="480" y="200" width="120" height="60" as="geometry" />
        </mxCell>
      </root>
    </mxGraphModel>
  </diagram>
</mxfile>
